<?xml version="1.0" standalone="no"?>
<!DOCTYPE svg PUBLIC "-//W3C//DTD SVG 20010904//EN"
 "http://www.w3.org/TR/2001/REC-SVG-20010904/DTD/svg10.dtd">
<svg version="1.0" xmlns="http://www.w3.org/2000/svg"
 viewBox="0 0 495.000000 504.000000"
 preserveAspectRatio="xMidYMid meet">

<g transform="translate(0.000000,504.000000) scale(0.100000,-0.100000)"
fill="#000000" stroke="none">
<path d="M2470 4164 c0 -64 -21 -125 -46 -134 -12 -5 -28 -19 -34 -31 -12 -21
-11 -21 11 -5 16 11 45 16 96 16 39 0 75 5 78 10 3 6 -1 10 -9 10 -12 0 -16
12 -17 48 l-2 47 -6 -42 c-11 -66 -21 -63 -22 8 -1 74 -17 131 -18 64 -2 -55
-12 -115 -21 -115 -4 0 -5 36 -2 80 2 44 2 80 -2 80 -3 0 -6 -16 -6 -36z"/>
<path d="M2123 3995 c-40 -17 -56 -47 -51 -94 3 -20 1 -70 -3 -111 -8 -65 -3
-157 7 -147 2 2 8 44 13 94 10 94 31 153 55 153 15 0 23 -40 26 -119 1 -47 30
-115 53 -124 9 -3 5 10 -10 41 -13 26 -23 63 -23 87 0 75 -12 136 -28 143 -9
3 -24 -5 -39 -22 -29 -34 -31 -9 -2 28 32 41 60 32 80 -26 21 -64 33 -73 26
-20 -12 92 -64 119 -118 61 -19 -20 -29 -26 -29 -16 0 27 60 68 93 65 54 -5
71 -43 77 -171 l5 -112 12 70 c19 105 1 184 -49 219 -27 19 -53 20 -95 1z"/>
<path d="M2518 3993 c-57 -4 -74 -15 -42 -27 31 -12 71 -6 89 14 10 11 16 19
14 18 -2 -1 -30 -3 -61 -5z"/>
<path d="M2742 3990 c-47 -20 -90 -62 -123 -123 -28 -53 -34 -72 -34 -130 0
-60 3 -71 24 -88 25 -21 84 -25 125 -9 44 16 113 88 137 143 14 32 23 72 23
106 0 48 -3 56 -32 82 -34 30 -75 37 -120 19z m109 -39 c38 -39 38 -86 1 -166
-43 -91 -113 -145 -186 -145 -120 0 -77 239 59 321 45 28 91 25 126 -10z"/>
<path d="M2712 3934 c-29 -23 -82 -99 -82 -119 0 -5 14 13 31 39 17 26 37 45
43 43 6 -2 24 2 40 10 25 13 30 13 44 -1 14 -14 14 -21 -2 -71 -21 -68 -94
-152 -123 -141 -13 5 -15 4 -7 -4 27 -28 103 35 141 117 43 92 17 143 -54 109
-32 -15 -36 -15 -22 -1 8 8 32 18 51 21 31 6 38 3 53 -20 16 -24 16 -32 3 -86
-18 -73 -4 -69 17 5 14 48 14 57 1 89 -14 33 -18 36 -58 36 -31 0 -52 -7 -76
-26z"/>
<path d="M2611 3734 c0 -18 7 -40 17 -51 9 -10 13 -13 8 -5 -5 7 -13 30 -17
50 -7 37 -7 37 -8 6z"/>
<path d="M2020 3936 c5 -15 11 -66 11 -114 l1 -87 14 70 c15 74 8 121 -22 146
-13 10 -13 8 -4 -15z"/>
<path d="M1985 3826 c-8 -142 3 -190 54 -222 25 -17 26 -17 9 2 -41 46 -50 92
-43 208 3 64 2 117 -3 125 -7 9 -12 -29 -17 -113z"/>
<path d="M2402 3887 c-24 -129 -11 -204 40 -236 12 -7 17 -8 13 -2 -3 6 -1 11
6 11 8 0 8 4 2 13 -6 6 -15 26 -22 42 -9 25 -11 26 -7 5 2 -14 7 -34 11 -45 6
-17 4 -17 -14 4 -17 19 -21 36 -20 95 1 76 18 148 34 146 6 0 9 -15 8 -33 l-2
-32 14 33 c15 33 43 47 30 15 -4 -10 -13 -51 -21 -91 -27 -142 -12 -134 26 13
13 54 30 96 41 105 17 14 12 15 -54 18 l-73 3 -12 -64z"/>
<path d="M3072 3876 c-6 -13 -49 -72 -96 -130 -123 -151 -187 -259 -186 -314
0 -9 11 8 24 39 26 65 42 88 148 222 72 90 135 193 125 203 -2 2 -9 -7 -15
-20z"/>
<path d="M1740 3867 c-47 -31 -71 -77 -77 -145 -6 -69 22 -161 63 -203 28 -30
84 -55 84 -38 0 5 9 9 19 9 25 0 77 44 84 69 3 15 -5 10 -29 -16 -28 -30 -39
-35 -68 -31 -28 3 -33 1 -24 -9 8 -10 7 -13 -4 -13 -33 0 -88 92 -103 172 -10
53 12 134 47 174 51 58 127 40 144 -33 9 -44 12 -50 13 -25 1 36 -27 88 -55
101 -36 16 -57 14 -94 -12z"/>
<path d="M3077 3827 c-15 -28 -59 -96 -98 -150 -39 -54 -69 -100 -67 -103 7
-7 144 168 165 211 18 37 37 95 31 95 -2 0 -15 -24 -31 -53z"/>
<path d="M1767 3849 c-26 -15 -57 -87 -56 -129 1 -35 1 -35 13 10 18 64 44
100 72 100 45 0 57 -60 25 -123 -10 -20 -15 -37 -11 -37 5 0 18 20 30 45 26
54 21 106 -13 130 -25 18 -35 18 -60 4z"/>
<path d="M3144 3835 c-18 -13 -17 -14 11 -6 93 24 153 -54 109 -142 -35 -70
-103 -125 -189 -154 l-40 -13 43 5 c60 8 111 36 156 85 64 70 80 133 51 189
-23 45 -102 66 -141 36z"/>
<path d="M1764 3778 c-26 -49 -22 -126 10 -192 15 -30 33 -57 42 -60 18 -7 74
20 74 34 0 6 -12 3 -26 -7 -26 -17 -27 -16 -50 10 -13 15 -28 43 -33 63 -8 31
-7 40 11 65 27 36 31 112 6 117 -11 2 -23 -9 -34 -30z m31 -64 c-12 -30 -18
-35 -25 -24 -10 16 -4 52 13 85 10 19 10 19 19 -1 7 -14 5 -33 -7 -60z"/>
<path d="M3128 3798 c-9 -7 -47 -53 -84 -103 -37 -49 -90 -120 -118 -157 -50
-65 -91 -128 -83 -128 2 0 28 29 57 66 41 49 60 64 75 61 11 -3 36 1 55 8 19
8 30 14 23 14 -6 1 -24 -4 -39 -9 -17 -7 -31 -7 -37 -1 -6 6 6 14 34 21 90 23
199 121 199 177 0 28 -35 31 -80 8 -36 -19 -40 -4 -5 19 37 24 81 21 100 -8
15 -22 15 -28 0 -62 -9 -21 -23 -47 -33 -59 -11 -13 -6 -11 12 5 55 49 72 113
38 143 -22 20 -91 23 -114 5z m62 -62 c0 -39 -156 -166 -191 -154 -20 7 79
125 122 146 51 25 69 27 69 8z"/>
<path d="M3570 3789 c0 -5 5 -7 10 -4 6 3 10 8 10 11 0 2 -4 4 -10 4 -5 0 -10
-5 -10 -11z"/>
<path d="M3610 3790 c0 -5 -12 -16 -26 -23 -26 -14 -26 -14 -5 -20 12 -3 28 1
36 10 17 16 20 43 5 43 -5 0 -10 -4 -10 -10z"/>
<path d="M3628 3739 c-10 -10 -30 -19 -45 -19 -27 -1 -27 -1 -9 -15 11 -8 24
-15 28 -15 12 0 58 47 58 60 0 15 -13 11 -32 -11z"/>
<path d="M2220 3714 c0 -21 38 -79 46 -71 3 2 -7 24 -21 48 -18 32 -25 38 -25
23z"/>
<path d="M1470 3640 c10 -25 22 -66 26 -90 l7 -45 -41 38 c-57 51 -74 47 -22
-5 48 -49 122 -153 114 -161 -10 -10 56 -38 70 -30 12 6 10 13 -10 36 -27 31
-33 24 -8 -11 9 -13 11 -22 4 -22 -23 0 -69 95 -90 187 -15 63 -30 103 -46
121 l-24 27 20 -45z"/>
<path d="M1490 3670 c0 -5 4 -12 10 -15 5 -3 21 -44 36 -91 14 -47 28 -83 31
-80 9 9 -17 137 -33 161 -16 25 -44 41 -44 25z"/>
<path d="M3444 3659 c-10 -12 -51 -43 -91 -70 -39 -27 -83 -64 -96 -81 -26
-35 -46 -94 -27 -83 5 3 10 13 10 21 0 22 63 86 132 133 59 40 105 87 96 97
-3 2 -13 -5 -24 -17z"/>
<path d="M1553 3643 c9 -16 25 -72 37 -124 36 -153 55 -163 24 -12 -16 77 -44
146 -65 158 -6 4 -4 -6 4 -22z"/>
<path d="M2040 3648 c0 -8 12 -25 27 -39 l27 -24 -24 35 c-13 19 -25 37 -27
39 -2 2 -3 -2 -3 -11z"/>
<path d="M3440 3610 c-25 -25 -61 -58 -80 -73 -48 -37 -25 -34 40 6 38 22 61
44 74 70 10 21 17 39 15 41 -2 1 -24 -18 -49 -44z"/>
<path d="M3469 3574 c-8 -9 -45 -40 -84 -69 -65 -49 -130 -109 -95 -90 71 40
173 124 191 157 12 22 6 23 -12 2z"/>
<path d="M1350 3554 c14 -9 51 -42 83 -73 64 -62 72 -61 26 5 -33 48 -81 84
-114 84 -17 0 -17 -2 5 -16z"/>
<path d="M1328 3533 c12 -9 52 -52 88 -95 66 -79 109 -109 156 -107 17 0 12 4
-17 15 -43 16 -100 67 -142 126 -14 21 -40 47 -58 58 -38 24 -60 26 -27 3z"/>
<path d="M2822 3445 c-6 -13 -7 -27 -3 -30 5 -2 12 7 15 21 9 35 2 40 -12 9z"/>
<path d="M3492 3441 c-87 -30 -157 -115 -132 -160 20 -38 61 -61 106 -61 45 0
51 -7 34 -40 -6 -11 -8 -31 -4 -45 l6 -25 22 33 c27 38 23 53 -4 17 -15 -18
-20 -21 -20 -9 0 42 74 99 184 139 32 12 72 35 90 51 l31 29 -49 -21 c-37 -16
-78 -23 -158 -27 -122 -5 -136 3 -58 37 51 22 135 30 180 17 23 -6 24 -6 5 6
-11 7 -49 13 -85 13 -52 0 -77 -6 -125 -30 -35 -18 -61 -38 -63 -48 -4 -18 3
-19 97 -15 56 1 101 2 101 1 0 -1 -26 -15 -57 -32 -76 -41 -161 -44 -198 -6
-14 13 -25 33 -25 44 0 54 114 128 218 141 l57 7 -50 1 c-27 1 -74 -7 -103
-17z"/>
<path d="M1180 3422 c-74 -74 -36 -221 77 -308 47 -36 112 -52 140 -35 15 9
13 10 -9 5 -68 -15 -185 85 -214 181 -28 97 13 184 80 171 34 -7 64 -31 77
-61 7 -18 8 -18 8 -2 1 10 -12 32 -28 48 -40 40 -91 40 -131 1z"/>
<path d="M3250 3420 c-7 -17 -10 -33 -8 -36 3 -3 11 9 17 27 6 18 9 34 7 36
-2 2 -9 -10 -16 -27z"/>
<path d="M3525 3418 c-91 -32 -147 -101 -111 -136 18 -16 18 -16 6 6 -10 21
-9 27 12 49 46 50 167 91 230 78 18 -4 42 -8 53 -11 11 -2 7 3 -10 11 -35 16
-136 18 -180 3z"/>
<path d="M1204 3399 c-21 -24 -24 -85 -5 -133 16 -40 20 -30 11 29 -13 87 20
129 67 83 17 -17 27 -42 33 -79 l8 -54 1 58 c1 52 -2 62 -28 88 -35 34 -61 37
-87 8z"/>
<path d="M1237 3373 c-12 -11 -8 -82 7 -116 17 -40 78 -101 117 -117 25 -11
32 -10 49 5 11 10 20 22 20 27 0 5 -7 2 -16 -6 -23 -24 -40 -20 -84 20 -36 33
-40 41 -40 86 0 67 -30 124 -53 101z m32 -37 c7 -8 11 -32 9 -53 l-4 -38 -17
37 c-26 57 -18 91 12 54z"/>
<path d="M3785 3323 c-11 -8 -51 -30 -89 -49 -37 -20 -66 -37 -64 -40 12 -11
114 31 146 61 38 34 43 55 7 28z"/>
<path d="M3683 3221 c-125 -62 -165 -91 -82 -60 73 28 164 77 185 100 9 10 15
18 13 17 -2 -1 -55 -26 -116 -57z"/>
<path d="M1451 3198 c-2 -34 -26 -71 -56 -84 -26 -12 -27 -13 -7 -14 39 0 84
65 69 102 -4 8 -6 7 -6 -4z"/>
<path d="M2220 3015 l0 -145 65 0 65 0 0 -35 c0 -33 -2 -35 -33 -35 -40 0 -54
-14 -96 -97 -29 -59 -33 -63 -66 -63 -30 0 -35 3 -35 24 0 37 -35 56 -103 56
-71 0 -93 -11 -102 -49 -5 -22 -13 -30 -36 -35 -19 -4 -33 -14 -39 -31 -6 -16
-10 -166 -10 -361 l0 -335 25 -25 25 -24 604 2 c555 3 607 4 622 20 16 15 17
51 18 369 l0 352 -23 18 c-13 11 -32 19 -42 19 -13 0 -19 7 -19 24 0 36 -35
56 -100 56 -65 0 -100 -20 -100 -56 0 -21 -4 -24 -38 -24 -37 0 -39 1 -72 71
-36 74 -52 89 -94 89 -23 0 -26 4 -26 35 l0 35 65 0 65 0 0 145 0 145 -260 0
-260 0 0 -145z m490 0 l0 -115 -230 0 -230 0 0 115 0 115 230 0 230 0 0 -115z
m-140 -180 l0 -35 -95 0 -95 0 0 35 0 35 95 0 95 0 0 -35z m128 -133 l33 -62
-250 0 c-138 0 -251 2 -251 5 0 10 42 90 55 105 11 12 46 15 197 14 l183 0 33
-62z m-639 -18 c21 -5 31 -12 31 -25 0 -17 -8 -19 -70 -19 -62 0 -70 2 -70 19
0 29 41 38 109 25z m920 0 c21 -5 31 -12 31 -25 0 -17 -8 -19 -70 -19 -62 0
-70 2 -70 19 0 29 41 38 109 25z m99 -83 c9 -1 12 -27 12 -96 l0 -95 -175 0
-175 0 -47 49 c-121 123 -321 119 -435 -7 l-38 -42 -180 0 -180 0 0 84 c0 57
4 89 13 98 11 10 126 13 603 11 324 -1 595 -2 602 -2z m-483 -109 c90 -46 148
-138 148 -236 0 -156 -114 -270 -269 -269 -78 1 -137 27 -191 86 -122 132 -83
335 80 418 55 27 69 30 127 26 38 -2 81 -12 105 -25z m-402 -144 c-4 -13 -8
-62 -8 -111 l0 -87 -157 0 -158 0 0 110 0 110 166 0 165 0 -8 -22z m897 -88
l0 -110 -158 0 -159 0 1 83 c1 45 -2 94 -7 110 l-7 27 165 0 165 0 0 -110z
m-866 -168 c24 -46 89 -98 152 -122 122 -45 256 -7 336 96 l43 54 167 0 168 0
0 -110 0 -110 -609 0 c-546 0 -609 2 -615 16 -8 21 -8 189 1 197 3 4 82 7 174
7 l168 0 15 -28z"/>
<path d="M2294 3076 c-3 -7 -4 -40 -2 -72 l3 -59 180 0 180 0 3 73 3 72 -181
0 c-143 0 -182 -3 -186 -14z m336 -56 l0 -40 -150 0 -150 0 0 40 0 40 150 0
150 0 0 -40z"/>
<path d="M2337 2714 c-20 -20 5 -24 144 -24 116 0 150 3 147 13 -3 9 -44 13
-144 15 -77 1 -143 -1 -147 -4z"/>
<path d="M2910 2550 c-35 -35 -20 -85 30 -102 45 -16 91 42 69 85 -23 43 -66
50 -99 17z m65 -40 c0 -16 -6 -26 -19 -28 -24 -5 -37 17 -25 41 14 26 44 17
44 -13z"/>
<path d="M1920 2505 c0 -33 4 -45 15 -45 11 0 15 12 15 45 0 33 -4 45 -15 45
-11 0 -15 -12 -15 -45z"/>
<path d="M2020 2505 c0 -33 4 -45 15 -45 11 0 15 12 15 45 0 33 -4 45 -15 45
-11 0 -15 -12 -15 -45z"/>
<path d="M2120 2505 c0 -33 4 -45 15 -45 11 0 15 12 15 45 0 33 -4 45 -15 45
-11 0 -15 -12 -15 -45z"/>
<path d="M2395 2441 c-157 -71 -165 -287 -15 -371 118 -65 264 1 301 135 44
158 -135 305 -286 236z m143 -26 c95 -40 135 -129 103 -227 -13 -40 -54 -82
-94 -97 -49 -19 -120 -13 -158 12 -98 66 -114 187 -35 269 53 54 119 70 184
43z"/>
<path d="M2465 2360 c-5 -9 33 -30 54 -30 14 0 39 -34 46 -62 9 -36 35 -37 35
-2 0 55 -111 132 -135 94z"/>
<path d="M2366 2263 c-29 -29 34 -118 92 -129 43 -9 46 21 2 31 -33 7 -70 47
-70 76 0 20 -13 32 -24 22z"/>
</g>
</svg>
